HIERARCHY
ROOT Hips
{
  OFFSET 0 0 0
  CHANNELS 6 Xposition Yposition Zposition Zrotation Xrotation Yrotation
  JOINT LeftUpLeg
  {
    OFFSET 4.06525 -3.90732 0.41711
    CHANNELS 3 Zrotation Xrotation Yrotation
    JOINT LeftLeg
    {
      OFFSET 0.00023 -18.4821 0.00367
      CHANNELS 3 Zrotation Xrotation Yrotation
      JOINT LeftFoot
      {
        OFFSET -0.00172 -15.2898 -0.02629
        CHANNELS 3 Zrotation Xrotation Yrotation
        JOINT LeftToeBase
        {
          OFFSET 0.36743 -3.19131 5.54287
          CHANNELS 3 Zrotation Xrotation Yrotation
          JOINT LeftToeBase2
          {
            OFFSET 0.08751 0.04849 1.36758
            CHANNELS 3 Zrotation Xrotation Yrotation
            JOINT LeftToeBase3
            {
              OFFSET 0.07484 0.06785 1.16707
            }
          }
        }
      }
    }
  }
  JOINT RightUpLeg
  {
    OFFSET -4.06526 -3.90731 0.41712
    CHANNELS 3 Zrotation Xrotation Yrotation
    JOINT RightLeg
    {
      OFFSET -0.00029 -18.4821 0.0044
      CHANNELS 3 Zrotation Xrotation Yrotation
      JOINT RightFoot
      {
        OFFSET 0.0016 -15.2898 -0.02569
        CHANNELS 3 Zrotation Xrotation Yrotation
        JOINT RightToeBase
        {
          OFFSET -0.3542 -3.19109 5.54386
          CHANNELS 3 Zrotation Xrotation Yrotation
          JOINT RightToeBase2
          {
            OFFSET -0.08424 0.04854 1.36778
            CHANNELS 3 Zrotation Xrotation Yrotation
            JOINT RightToeBase3
            {
              OFFSET -0.07205 0.0679 1.16725
            }
          }
        }
      }
    }
  }
  JOINT Spine
  {
    OFFSET 1e-005 4.46517 -0.10224
    CHANNELS 3 Zrotation Xrotation Yrotation
    JOINT Spine1
    {
      OFFSET 1e-005 4.46212 -0.1824
      CHANNELS 3 Zrotation Xrotation Yrotation
      JOINT Spine2
      {
        OFFSET 0 4.37937 -0.881
        CHANNELS 3 Zrotation Xrotation Yrotation
        JOINT Spine3
        {
          OFFSET 1e-005 4.68286 0.21414
          CHANNELS 3 Zrotation Xrotation Yrotation
          JOINT Neck
          {
            OFFSET 0 1.76964 0.82454
            CHANNELS 3 Zrotation Xrotation Yrotation
            JOINT Head
            {
              OFFSET 0 1.6961 0.93145
              CHANNELS 3 Zrotation Xrotation Yrotation
              JOINT Head_End
              {
                OFFSET 1e-005 7.8375 1.52603
              }
            }
          }
          JOINT LeftShoulder
          {
            OFFSET 1.19381 -0.75881 -0.02768
            CHANNELS 3 Zrotation Xrotation Yrotation
            JOINT LeftArm
            {
              OFFSET 5.18779 -2e-005 1e-005
              CHANNELS 3 Zrotation Xrotation Yrotation
              JOINT LeftForeArm
              {
                OFFSET 12.7364 -4e-005 2e-005
                CHANNELS 3 Zrotation Xrotation Yrotation
                JOINT LeftHand
                {
                  OFFSET 9.21452 -2e-005 1e-005
                  CHANNELS 3 Zrotation Xrotation Yrotation
                }
              }
            }
          }
          JOINT RightShoulder
          {
            OFFSET -1.19381 -0.75881 -0.02767
            CHANNELS 3 Zrotation Xrotation Yrotation
            JOINT RightArm
            {
              OFFSET -5.18779 1e-005 -1e-005
              CHANNELS 3 Zrotation Xrotation Yrotation
              JOINT RightForeArm
              {
                OFFSET -12.7364 3e-005 -2e-005
                CHANNELS 3 Zrotation Xrotation Yrotation
                JOINT RightHand
                {
                  OFFSET -9.21452 2e-005 -1e-005
                  CHANNELS 3 Zrotation Xrotation Yrotation
                }
              }
            }
          }
        }
      }
    }
  }
}
MOTION
Frames: 8
Frame Time: 	0.0166667
-1.91434 24.1784 16.4311 7.2778 -9.84682 17.6882 1.74028 -60.2017 -3.26928  -153.413 73.6947 147.212  1.35961 -32.6677 -1.46562  7.34628e-009 1.21113e-009 8.03894e-009  -0 0 -0   -39.6385 -54.9985 -31.0086  -177.007 71.7684 -179.522  -1.32743 -34.9685 1.63182  0.889178 -0.572832 0.000509144  -0 0 -0   -11.6029 33.9806 12.5696  -0.967111 7.84431 1.43155  -0.918771 7.83746 1.49524  -0.878026 7.82781 1.5646  8.38374e-013 5.08889e-014 -1.92026e-013  27.1435 18.8851 -26.4806   0.128324 -0.125115 3.10409  -30.2898 5.19103 -70.7874  11.7805 11.2589 -42.5124  -7.0605 0.16466 3.28076  0.0323914 -0.23477 -2.73773  30.4108 4.61668 51.6232  -5.92564 6.03608 36.9034  11.4277 0.0913328 -7.95893 
-1.85241 24.7905 16.5072 6.75496 -9.30968 17.1954 2.20899 -59.1848 -2.68713  -150.744 75.7505 144.857  1.15816 -32.2257 -1.50092  7.34628e-009 1.21113e-009 8.03894e-009  -0 0 -0   -37.3657 -54.4342 -29.0132  -177.456 74.1396 -179.495  -1.24792 -34.6124 1.67749  0.66196 -0.426408 0.000509126  -0 0 -0   -11.0272 33.3022 12.1664  -0.967299 7.6848 1.39135  -0.920349 7.67925 1.44993  -0.880299 7.67112 1.51381  8.38374e-013 5.08889e-014 -1.92026e-013  26.6155 18.5566 -26.0452   0.127035 -0.0967594 3.22986  -29.311 4.96633 -72.36  13.8192 12.3649 -44.9025  -7.66947 0.114425 2.4562  -0.0182847 -0.191156 -2.89903  32.7832 5.16084 50.5822  -6.39429 6.93948 36.3174  12.0714 0.0503724 -8.35742 
-1.7861 25.4045 16.5941 6.1938 -8.86056 16.7627 2.70377 -58.0924 -2.09161  -147.254 77.8056 141.629  1.00179 -31.7607 -1.52454  7.34628e-009 1.21113e-009 8.03894e-009  -0 0 -0   -35.0706 -53.7161 -26.9905  -178.225 76.5696 -179.158  -1.16638 -34.2348 1.7195  0.440867 -0.283945 0.000509122  -0 0 -0   -10.4358 32.7352 11.8729  -0.989016 7.50562 1.38755  -0.944197 7.50136 1.43994  -0.905573 7.49474 1.49729  8.38374e-013 5.08889e-014 -1.92026e-013  26.2348 18.3834 -25.6492   0.124914 -0.0652255 3.37041  -28.337 4.98524 -73.8542  16.0398 13.3145 -47.487  -7.70158 0.0859312 1.86163  -0.0687879 -0.149723 -3.04879  35.217 5.57354 48.967  -6.91636 7.80595 36.0976  12.6757 0.0050854 -8.68518 
-1.71371 26.0408 16.6803 5.53064 -8.68258 16.3087 3.49161 -56.6738 -1.25456  -142.245 79.8848 136.804  0.96179 -31.2675 -1.5296  7.34628e-009 1.21113e-009 8.03894e-009  -0 0 -0   -32.4104 -52.6454 -24.6365  -179.929 79.1865 -177.905  -1.11596 -33.7873 1.75263  0.213567 -0.137536 0.000509117  -0 0 -0   -9.85141 32.5402 11.8727  -1.04745 7.28268 1.44976  -1.00574 7.28041 1.49243  -0.969324 7.27599 1.53968  8.38374e-013 5.08889e-014 -1.92026e-013  26.2783 18.4566 -25.4455   0.123219 -0.0371118 3.49627  -27.4261 5.38133 -75.3411  17.9124 13.5344 -50.2209  -7.06589 0.0889447 1.67689  -0.102827 -0.118961 -3.16144  37.7448 5.74623 46.6731  -7.43386 8.55484 36.1597  12.9349 -0.0111025 -8.87993 
-1.63445 26.6816 16.7739 4.77487 -8.86311 15.8713 4.38458 -54.9246 -0.348755  -136.36 82.0428 131.095  0.847297 -30.8257 -1.54215  7.34628e-009 1.21113e-009 8.03894e-009  -0 0 -0   -29.4235 -51.1582 -21.9777  176.012 81.9087 -174.257  -1.0195 -33.2521 1.78293  0.0388436 -0.0250025 0.000509148  -0 0 -0   -9.10597 32.6641 11.9587  -1.10934 7.05768 1.5368  -1.07149 7.058 1.56752  -1.03787 7.05642 1.60245  8.38374e-013 5.08889e-014 -1.92026e-013  26.3666 18.7019 -25.2263   0.121993 -0.00966692 3.61934  -26.63 5.96495 -76.628  19.6216 13.3255 -53.0503  -6.08833 0.108526 1.81935  -0.123818 -0.0923383 -3.26302  39.9263 6.00488 44.1593  -7.45306 8.47858 36.3862  12.4676 0.0213313 -9.17499 
-1.52707 27.3161 16.8802 3.70653 -9.7214 15.4005 5.28574 -52.6337 0.536426  -132.946 84.6011 128.017  0.331358 -30.5861 -1.60523  7.34628e-009 1.21113e-009 8.03894e-009  -0 0 -0   -25.8462 -48.9626 -18.7756  163.761 84.6072 -162.268  -0.793419 -32.5668 1.81144  -0.000421015 0.00028075 0.000509193  -0 0 -0   -7.89271 33.2479 11.955  -1.15267 6.87083 1.61456  -1.11892 6.87496 1.63061  -1.0881 6.87747 1.6505  8.38374e-013 5.08889e-014 -1.92026e-013  26.2383 19.0832 -24.8231   0.120777 0.0171745 3.73946  -26.1308 6.59301 -77.4362  21.2409 12.7672 -56.0173  -5.1068 0.154225 2.28792  -0.126931 -0.0645 -3.37971  41.2932 6.89734 41.9338  -6.19223 6.54351 36.5736  10.3958 0.193353 -9.8046 
-1.41538 27.9437 16.9995 2.52042 -10.685 15.0114 6.16216 -50.1993 1.36851  -123.626 87.1357 118.968  -0.125611 -30.3203 -1.65632  7.34628e-009 1.21113e-009 8.03894e-009  -0 0 -0   -22.5502 -46.4451 -15.8793  131.836 86.6563 -130.568  -0.50027 -31.81 1.83455  0.0112087 -0.00721458 0.000509195  -0 0 -0   -6.63088 33.9554 11.896  -1.15736 6.70239 1.69325  -1.12876 6.71009 1.69564  -1.10188 6.71647 1.70144  8.38374e-013 5.08889e-014 -1.92026e-013  25.816 19.5739 -24.2659   0.11945 0.044896 3.86343  -25.6822 7.31588 -78.0443  22.6226 11.9525 -58.8508  -3.99947 0.230477 3.01859  -0.125549 -0.0398299 -3.48614  42.1501 8.16068 39.7071  -4.32806 3.74439 37.0367  7.91589 0.44473 -10.6671 
-1.34714 28.5612 17.1188 1.69403 -11.4317 14.8882 7.09307 -47.9183 2.21601  -66.7665 88.2926 62.0026  -0.0442448 -29.8184 -1.63056  7.34628e-009 1.21113e-009 8.03894e-009  -0 0 -0   -20.0148 -44.0326 -13.6944  77.9752 86.7271 -77.0418  -0.138964 -31.0296 1.85746  0.0116812 -0.00751867 0.000509195  -0 0 -0   -5.71521 34.5514 11.8167  -1.09422 6.54415 1.77912  -1.07327 6.55403 1.77258  -1.05309 6.56284 1.76889  8.38374e-013 5.08889e-014 -1.92026e-013  24.8848 20.1481 -23.4933   0.117716 0.0769828 4.00664  -25.0107 8.09196 -78.6956  23.6839 11.0171 -61.3496  -2.65617 0.346036 4.00234  -0.12447 -0.0216558 -3.56123  42.5962 9.71703 37.3077  -2.09703 0.519426 38.0648  5.85399 0.69606 -11.8438 
